<svg viewBox="241.998 73.06961937716262 1042.5700000000002 296.84532871972317" version="1.1" xmlns="http://www.w3.org/2000/svg" data-name="Layer 1" id="Layer_1" style="max-height: 500px" width="1042.5700000000002" height="296.84532871972317">
  <defs>
    <style>
      .cls-1 {
        font-size: 70.52px;
      }

      .cls-1, .cls-2, .cls-3, .cls-4, .cls-5 {
        fill: #231f20;
      }

      .cls-1, .cls-4, .cls-5 {
        font-family: MyriadPro-It, 'Myriad Pro';
        font-style: italic;
      }

      .cls-2, .cls-6, .cls-7 {
        stroke-width: 0px;
      }

      .cls-3 {
        font-family: MyriadPro-Regular, 'Myriad Pro';
        font-size: 68.33px;
      }

      .cls-6 {
        fill: #ed1c24;
      }

      .cls-4 {
        font-size: 66.69px;
      }

      .cls-5 {
        font-size: 72.64px;
      }

      .cls-7 {
        fill: #fff;
      }
    </style>
  </defs>
  <g>
    <path d="M-2031.98-401.7c1.49.25,3.22.49,3.72.49,23.29,3.72,39.15,19.33,39.15,38.91,0,30.97-31.47,42.87-80.04,42.87-4.46,0-18.34-.49-23.04-.49-6.44,0-17.35.25-25.52.49-.75,0-.75-.25-.75-.49,0-1.24.5-2.98,1.49-3.22l11.15-2.23c1.73-.5,2.73-1.49,2.73-3.97.25-9.91-.25-56.25-.25-66.66,0-11.4-.5-57.49-.74-65.42,0-2.73-.75-3.72-2.73-3.96l-11.15-.99c-1.24-.25-1.73-2.23-1.73-3.47,0-.25.25-.49.99-.49,13.63-1.74,35.19-3.22,57.98-3.22,43.12,0,63.44,11.89,63.44,35.19,0,17.09-15.86,29.98-30.73,34.44-.99.25-2.48.74-3.96,1.24v.99ZM-2026.03-360.07c0-22.05-20.32-35.69-38.41-35.69-2.23,0-4.71,0-5.7.75-.49,9.42-1.49,61.95-1.49,67.15,0,2.23,3.22,3.47,6.69,3.47,21.81,0,38.9-10.9,38.9-35.43v-.25ZM-2061.97-469.1c-3.47,0-5.45,1.73-5.45,4.21-1.24,17.84-2.48,57.74-2.48,63.44.99.74,3.22.99,4.46.99,16.11,0,31.97-11.9,31.97-34.44s-12.64-34.2-28.25-34.2h-.25Z" class="cls-2"/>
    <path d="M-1907.76-434.66c10.16,0,19.57,1.98,27.75,5.95,3.72-5.7,7.19-11.15,10.9-16.6.5-.49.99-.74,1.73-.25,2.73,2.23,5.45,6.69,3.97,8.92-2.97,3.96-6.19,7.93-9.17,12.14,13.63,9.91,19.82,26.51,19.82,44.11,0,32.71-21.81,62.45-67.4,62.45-9.91,0-19.08-1.98-26.51-4.96-4.21,5.21-8.42,10.66-13.13,15.86-.75,1.24-3.22,1.49-5.45,1.49-.99,0-1.49-.5-.75-1.49,4.71-6.2,9.67-12.64,14.13-18.59-14.62-9.17-22.8-25.27-22.8-45.35,0-33.21,20.81-63.69,66.66-63.69h.25ZM-1913.96-429.95c-16.11,0-25.27,22.05-25.27,54.76,0,9.42,1.24,20.57,3.22,30.23,14.37-22.3,28.74-44.6,42.87-66.66-3.47-10.9-10.41-18.34-20.57-18.34h-.25ZM-1888.44-377.17c0-7.68-.74-16.11-1.73-24.53-14.37,20.57-28.74,41.63-43.36,62.94,4.21,9.91,11.89,16.11,20.57,16.11,17.84,0,24.53-23.04,24.53-54.27v-.25Z" class="cls-2"/>
    <path d="M-1772.72-387.83c.75-2.23,1.49-4.71,2.23-6.44,5.45-12.89,21.56-40.39,49.56-40.39,22.3,0,32.71,21.31,32.71,46.83,0,36.43-18.34,69.88-56.75,69.88-15.61,0-25.52-5.95-35.19-15.86-1.73-1.73-2.48-1.98-3.71-.49l-14.37,15.11c-.49.5-.99.5-1.24.5-1.98,0-5.45-1.24-5.45-1.98-.25-13.63-.75-65.42-.99-86.48-.25-17.1-.5-62.69-.74-67.65-.25-2.73-1.24-3.47-2.73-3.47l-11.89-.5c-.99,0-1.74-1.73-1.74-2.97,0-.74.25-.99.75-.99l49.56-5.45c1.73-.25,2.48.25,2.48,1.98,0,2.48-2.23,68.39-2.97,86.73,0,2.23-.5,8.18-.74,11.4l1.24.25ZM-1748.19-322.41c15.61,0,24.78-19.33,24.78-54.02,0-20.07-5.7-39.65-17.35-39.65-15.36,0-29.98,28.25-33.95,50.55-.25,1.73-.5,4.21-.5,5.7,0,2.23.5,5.21.5,6.44,2.73,20.57,14.87,30.97,26.27,30.97h.25Z" class="cls-2"/>
    <path d="M-1633.34-488.18c1.49-.25,1.98.25,1.98,1.98,0,3.22-1.73,52.04-2.23,80.78-.25,17.84-1.24,72.36-1.24,77.06,0,2.23.74,2.73,2.48,3.22l12.89,2.23c.74,0,1.49,1.74,1.49,2.98,0,.25,0,.49-.49.49-6.44-.25-18.34-.49-32.96-.49-13.63,0-24.28.25-29.49.49-.49,0-.74-.25-.74-.74,0-.75.5-2.48,1.49-2.73l12.14-2.23c1.73-.49,2.73-.99,2.73-2.97.5-6.94-.74-66.16-.74-74.83s-1.24-61.45-1.49-71.61c0-2.23-.74-3.47-2.97-3.47l-14.62-.74c-.99,0-1.98-1.73-1.98-2.97,0-.5,0-.99.74-.99l53.03-5.45Z" class="cls-2"/>
    <path d="M-1539.48-386.34c-.25-5.2-1.24-10.9-2.23-15.11-2.97-11.4-9.91-20.81-21.81-20.81s-23.05,5.2-35.93,16.35c-.25.25-.5.49-.74.49-.74,0-2.73-2.97-1.49-4.21,13.88-14.62,32.21-25.03,57.99-25.03,33.2,0,38.41,28,38.41,53.03,0,4.71-.5,18.83-.99,27.26-.5,11.15-.99,22.05-.99,26.02,0,1.74.49,2.48,2.48,2.98l10.41,2.47c.99.5,1.49,1.49,1.49,2.48,0,.5-.25.74-.99.74-2.97-.25-13.13-.25-22.8-.25-8.43,0-13.63,0-17.84.25-.74,0-1.24-.25-1.24-1.24-.25-1.98-.74-10.9-.74-16.35,0-1.24-.25-4.95-.25-6.94l-.74-.5c-.99,1.98-2.23,4.21-3.47,6.2-6.19,9.42-18.59,20.57-39.4,20.57-16.11,0-32.96-10.66-32.96-33.21s14.37-45.35,46.34-45.35c9.91,0,17.84,3.47,21.56,6.44,1.49.99,3.47,2.48,4.95,3.97l.99-.25ZM-1561.78-330.59c9.66,0,18.58-9.41,23.29-23.05.99-2.72,1.73-5.95,1.73-8.92,0-2.73-.74-5.95-2.23-9.42-3.22-8.42-10.9-18.34-21.56-18.34-12.64,0-18.34,16.11-18.34,32.96s6.94,26.76,16.85,26.76h.25Z" class="cls-2"/>
    <path d="M-1369.24-488.18c1.73-.25,1.98.74,1.98,1.98,0,1.49-2.23,79.79-2.23,90.2-.25,6.44-.75,64.43-.75,66.91,0,2.72.5,3.22,2.23,3.72l12.64,2.47c.74.25,1.49,1.49,1.49,2.48,0,.5-.25.74-.75.74-7.19-.25-14.87-.25-23.79-.25s-15.86,0-20.32.25c-.99,0-1.49-.49-1.49-2.23,0-3.47-.25-24.04-.25-29.24,0-3.72.49-7.19.49-10.9l-.99-.25c-.99,2.48-1.73,4.71-2.73,7.19-8.43,17.1-22.8,37.17-46.59,37.17-20.57,0-35.43-16.6-35.43-45.35,0-39.65,20.32-71.37,56.99-71.37,10.9,0,18.09,3.72,22.8,7.19,1.73,1.24,2.97,2.72,4.21,4.21l.74-.25c-.49-4.21-.74-9.91-.99-12.89-.25-4.46-.74-28.5-1.24-39.89-.25-1.98-1.24-3.22-3.22-3.22l-17.35-.99c-.99,0-1.73-1.98-1.73-3.22,0-.25,0-.5.74-.5l55.51-3.96ZM-1432.43-335.54c12.88,0,24.78-17.84,31.72-46.09.74-2.73,1.24-6.44,1.24-8.18,0-3.22-.49-7.43-.99-10.9-3.22-14.37-12.14-28.99-25.28-28.99-15.61,0-25.27,19.82-25.27,54.76,0,21.31,6.19,39.4,18.34,39.4h.25Z" class="cls-2"/>
  </g>
  <g>
    <path d="M-2190.22-397.8c-.41-.26,6.88-2.42,13.12-19.34,4.85-13.12,4.97-29.66-1.24-46.96-4.83-13.44-14.69-32.81-54.99-31.42l-100.33.31s-27.18-3.46-27.18,23.83c0,13.16.09,171.62,0,174.73,0,15.54,7.18,27.28,23.43,27.28l105.32.03c45.2.04,69.87-39.62,68.43-75.64,1.86-25.54-13.44-44.53-26.56-52.82Z" class="cls-7"/>
    <path d="M-2189.47-482.47c-15.66.14-32.22.24-46.29,5.85-5.81,2.46-11.94,7.41-12.74,14.06-.38,2.88-.67,6.37,1.89,8.26,1.46,1.14,3.5,1.56,5.28.99,1.47-.43,2.83-1.7,3.5-3.07.9-2.59-.32-5.9,2.55-7.74,4.15-3.26,9.25-4.34,14.35-5.33,12.5-1.89,26.06-1.97,39.5-1.83l.43.92-3.47,1.29c-13.87,5.52-27.69,11.19-40.01,20.57-8.07,6.46-14.34,14.91-12.74,25.48,1.98,10,11.65,19.58,21.7,21.52,14.1,2.31,24.02-10.71,29.77-21.47,4.68-8.87,8.07-18.26,10.86-27.94,3.11,16.33.14,34.07-9.24,47.14-1.76,2.21-3.69,4.25-6.05,5.75,14.25,9.25,23.63,24.39,26.1,40.53.99,6.61.28,13.45.42,20.25-1.55,18.92-8.54,35.91-22.23,49.5-13.21,12.7-29.81,18.64-47.94,18.17,19.39-17.46,33.03-39.54,43.46-61.86,1.33-3.16,2.59-6.37,3.5-9.58.34-2.03-.32-4.01-1.88-5.33-2.41-1.79-5.52-1.98-8.3-2.88l-26.38-6.84c-14.63-3.3-29.73-6.65-45.58-4.76-8.64,1.04-17.85,5.52-20.95,14.3-.71,2.59-2.12,6.18.09,8.54,1.32,1.61,3.21,2.22,5.24,1.94,2.02-.14,4.01-1.84,4.53-3.77.19-3.63,3.07-7.13,6.46-8.35,10.9-3.97,24.12-1.42,35.16.33,13.17,2.6,25.95,5.99,38.69,9.48-.71,2.22-.94,2.69-2.02,4.82-1.89.24-5.57.24-7.89.61l-17.27,2.46c-13.35,2.22-26.46,5.05-38.54,10.38-10.86,4.86-23.46,14.77-23.08,28.17.14,8.58,3.59,15.85,8.54,22.41l-34.45.18c-1.51-13.54.66-28.07,12.55-36.19,3.78-2.59,8.02-3.87,12.37-5.04,1.65-.76,2.92-2.46,3.21-4.15.24-1.94-.42-3.63-1.7-4.96-2.92-2.83-6.93-.75-10.1.05-7.03,2.5-13.97,6.84-18.77,13.16,2.96-31,13.77-58.7,30.44-84.04,10.75-15.71,24.82-31.66,41.14-42.33,2.03-1.27,4.63-2.97,4.76-5.61.15-1.89-.52-3.45-1.84-4.72-1.36-1.23-3.17-1.75-5.1-1.32l-1.65.62c-20.72,13.4-38.79,34.02-51.24,54.88-.71-12.64-3.92-25.01-9.73-35.91-1.32-2.31-3.59-3.21-6.14-2.83-1.74.38-3.77,1.79-4.25,3.68-1.27,3.96,2.27,6.7,3.12,10.14,7.22,15.67,6.84,36.38,2.74,53.37-11.14,27.51-17.5,59.79-11.75,91.26-9.3-.19-19.06,1.51-25.86-5.01-6.51-5.84-8.21-14.06-8.21-22.69l-.33-88.33c9.24,1.55,18.17-1.18,25.72-5.38,8.54-5.19,12.69-14.06,11.93-23.97-.84-10.33-5.32-19.15-10.1-27.88-7.08-11.89-16.23-23.22-25.43-34.03-.61-.63-1.24-1.43-1.77-1.9.38-1.84.73-2.68,1.48-4.43l.42.1c15.68,8.82,31.81,16.61,46.2,28.55,4.25,4.1,8.68,8.26,9.82,13.82,1.04,3.64-2.18,5.94-2.51,9.3.05,1.89.99,3.63,2.69,4.66,1.47,1.09,3.68,1.04,5.34.38,2.4-1.09,3.35-3.59,4.39-5.71,4.76-12.08-3.35-22.69-12.18-30.62-10.81-9.25-22.74-15.85-34.54-22.65l-11.85-6.46c7.08-4.77,16.57-3.26,25.58-3.5l95.56-.57.04-.04c15.06.24,29.88,2.22,40.58,13.16Z" class="cls-6"/>
    <path d="M-2335.37-419.57c1.55,5.84,1.84,13.39-3.26,17.64-4.81,3.97-10.57,5.66-16.9,5.95-1.88,0-3.72-.38-5.32-1l.07-65c10.75,13.21,20.54,26.69,25.41,42.41Z" class="cls-6"/>
    <path d="M-2201.88-418.72c-3.21,3.49-6.98,7.22-11.94,6.23-4.95-1.32-9.67-6.19-11.8-10.81-2.4-6.65,3.21-12.17,8.07-16.42,10.1-7.65,21.33-12.7,32.65-17.36-3.77,13.45-8.25,26.84-16.99,38.36Z" class="cls-6"/>
    <path d="M-2207.72-321.99c-8.73,15.43-19.12,31.24-32.8,43.51-6.24,4.81-12.46,9.91-21.05,8.91-7.37-1.6-11.94-9.25-14.54-15.57-1.79-4.39-1.65-10.38,1.18-14.25,6.42-8.35,15.95-11.61,25.06-14.63,13.59-4.1,27.6-6.32,42.15-7.97Z" class="cls-6"/>
  </g>
  <text transform="translate(-2115.09 -240.59)" class="cls-5"><tspan y="0" x="0">– lokalavis for Midt-Telemark</tspan></text>
  <g>
    <path d="M-2031.98,152.3c1.49.25,3.22.49,3.72.49,23.29,3.72,39.15,19.33,39.15,38.91,0,30.97-31.47,42.87-80.04,42.87-4.46,0-18.34-.49-23.04-.49-6.44,0-17.35.25-25.52.49-.75,0-.75-.25-.75-.49,0-1.24.5-2.98,1.49-3.22l11.15-2.23c1.73-.5,2.73-1.49,2.73-3.97.25-9.91-.25-56.25-.25-66.66,0-11.4-.5-57.49-.74-65.42,0-2.73-.75-3.72-2.73-3.96l-11.15-.99c-1.24-.25-1.73-2.23-1.73-3.47,0-.25.25-.49.99-.49,13.63-1.74,35.19-3.22,57.98-3.22,43.12,0,63.44,11.89,63.44,35.19,0,17.09-15.86,29.98-30.73,34.44-.99.25-2.48.74-3.96,1.24v.99ZM-2026.03,193.94c0-22.05-20.32-35.69-38.41-35.69-2.23,0-4.71,0-5.7.75-.49,9.42-1.49,61.95-1.49,67.15,0,2.23,3.22,3.47,6.69,3.47,21.81,0,38.9-10.9,38.9-35.43v-.25ZM-2061.97,84.9c-3.47,0-5.45,1.73-5.45,4.21-1.24,17.84-2.48,57.74-2.48,63.44.99.74,3.22.99,4.46.99,16.11,0,31.97-11.9,31.97-34.44s-12.64-34.2-28.25-34.2h-.25Z" class="cls-2"/>
    <path d="M-1907.76,119.35c10.16,0,19.57,1.98,27.75,5.95,3.72-5.7,7.19-11.15,10.9-16.6.5-.49.99-.74,1.73-.25,2.73,2.23,5.45,6.69,3.97,8.92-2.97,3.96-6.19,7.93-9.17,12.14,13.63,9.91,19.82,26.51,19.82,44.11,0,32.71-21.81,62.45-67.4,62.45-9.91,0-19.08-1.98-26.51-4.96-4.21,5.21-8.42,10.66-13.13,15.86-.75,1.24-3.22,1.49-5.45,1.49-.99,0-1.49-.5-.75-1.49,4.71-6.2,9.67-12.64,14.13-18.59-14.62-9.17-22.8-25.27-22.8-45.35,0-33.21,20.81-63.69,66.66-63.69h.25ZM-1913.96,124.06c-16.11,0-25.27,22.05-25.27,54.76,0,9.42,1.24,20.57,3.22,30.23,14.37-22.3,28.74-44.6,42.87-66.66-3.47-10.9-10.41-18.34-20.57-18.34h-.25ZM-1888.44,176.84c0-7.68-.74-16.11-1.73-24.53-14.37,20.57-28.74,41.63-43.36,62.94,4.21,9.91,11.89,16.11,20.57,16.11,17.84,0,24.53-23.04,24.53-54.27v-.25Z" class="cls-2"/>
    <path d="M-1772.72,166.18c.75-2.23,1.49-4.71,2.23-6.44,5.45-12.89,21.56-40.39,49.56-40.39,22.3,0,32.71,21.31,32.71,46.83,0,36.43-18.34,69.88-56.75,69.88-15.61,0-25.52-5.95-35.19-15.86-1.73-1.73-2.48-1.98-3.71-.49l-14.37,15.11c-.49.5-.99.5-1.24.5-1.98,0-5.45-1.24-5.45-1.98-.25-13.63-.75-65.42-.99-86.48-.25-17.1-.5-62.69-.74-67.65-.25-2.73-1.24-3.47-2.73-3.47l-11.89-.5c-.99,0-1.74-1.73-1.74-2.97,0-.74.25-.99.75-.99l49.56-5.45c1.73-.25,2.48.25,2.48,1.98,0,2.48-2.23,68.39-2.97,86.73,0,2.23-.5,8.18-.74,11.4l1.24.25ZM-1748.19,231.6c15.61,0,24.78-19.33,24.78-54.02,0-20.07-5.7-39.65-17.35-39.65-15.36,0-29.98,28.25-33.95,50.55-.25,1.73-.5,4.21-.5,5.7,0,2.23.5,5.21.5,6.44,2.73,20.57,14.87,30.97,26.27,30.97h.25Z" class="cls-2"/>
    <path d="M-1633.34,65.82c1.49-.25,1.98.25,1.98,1.98,0,3.22-1.73,52.04-2.23,80.78-.25,17.84-1.24,72.36-1.24,77.06,0,2.23.74,2.73,2.48,3.22l12.89,2.23c.74,0,1.49,1.74,1.49,2.98,0,.25,0,.49-.49.49-6.44-.25-18.34-.49-32.96-.49-13.63,0-24.28.25-29.49.49-.49,0-.74-.25-.74-.74,0-.75.5-2.48,1.49-2.73l12.14-2.23c1.73-.49,2.73-.99,2.73-2.97.5-6.94-.74-66.16-.74-74.83s-1.24-61.45-1.49-71.61c0-2.23-.74-3.47-2.97-3.47l-14.62-.74c-.99,0-1.98-1.73-1.98-2.97,0-.5,0-.99.74-.99l53.03-5.45Z" class="cls-2"/>
    <path d="M-1539.48,167.67c-.25-5.2-1.24-10.9-2.23-15.11-2.97-11.4-9.91-20.81-21.81-20.81s-23.05,5.2-35.93,16.35c-.25.25-.5.49-.74.49-.74,0-2.73-2.97-1.49-4.21,13.88-14.62,32.21-25.03,57.99-25.03,33.2,0,38.41,28,38.41,53.03,0,4.71-.5,18.83-.99,27.26-.5,11.15-.99,22.05-.99,26.02,0,1.74.49,2.48,2.48,2.98l10.41,2.47c.99.5,1.49,1.49,1.49,2.48,0,.5-.25.74-.99.74-2.97-.25-13.13-.25-22.8-.25-8.43,0-13.63,0-17.84.25-.74,0-1.24-.25-1.24-1.24-.25-1.98-.74-10.9-.74-16.35,0-1.24-.25-4.95-.25-6.94l-.74-.5c-.99,1.98-2.23,4.21-3.47,6.2-6.19,9.42-18.59,20.57-39.4,20.57-16.11,0-32.96-10.66-32.96-33.21s14.37-45.35,46.34-45.35c9.91,0,17.84,3.47,21.56,6.44,1.49.99,3.47,2.48,4.95,3.97l.99-.25ZM-1561.78,223.42c9.66,0,18.58-9.41,23.29-23.05.99-2.72,1.73-5.95,1.73-8.92,0-2.73-.74-5.95-2.23-9.42-3.22-8.42-10.9-18.34-21.56-18.34-12.64,0-18.34,16.11-18.34,32.96s6.94,26.76,16.85,26.76h.25Z" class="cls-2"/>
    <path d="M-1369.24,65.82c1.73-.25,1.98.74,1.98,1.98,0,1.49-2.23,79.79-2.23,90.2-.25,6.44-.75,64.43-.75,66.91,0,2.72.5,3.22,2.23,3.72l12.64,2.47c.74.25,1.49,1.49,1.49,2.48,0,.5-.25.74-.75.74-7.19-.25-14.87-.25-23.79-.25s-15.86,0-20.32.25c-.99,0-1.49-.49-1.49-2.23,0-3.47-.25-24.04-.25-29.24,0-3.72.49-7.19.49-10.9l-.99-.25c-.99,2.48-1.73,4.71-2.73,7.19-8.43,17.1-22.8,37.17-46.59,37.17-20.57,0-35.43-16.6-35.43-45.35,0-39.65,20.32-71.37,56.99-71.37,10.9,0,18.09,3.72,22.8,7.19,1.73,1.24,2.97,2.72,4.21,4.21l.74-.25c-.49-4.21-.74-9.91-.99-12.89-.25-4.46-.74-28.5-1.24-39.89-.25-1.98-1.24-3.22-3.22-3.22l-17.35-.99c-.99,0-1.73-1.98-1.73-3.22,0-.25,0-.5.74-.5l55.51-3.96ZM-1432.43,218.46c12.88,0,24.78-17.84,31.72-46.09.74-2.73,1.24-6.44,1.24-8.18,0-3.22-.49-7.43-.99-10.9-3.22-14.37-12.14-28.99-25.28-28.99-15.61,0-25.27,19.82-25.27,54.76,0,21.31,6.19,39.4,18.34,39.4h.25Z" class="cls-2"/>
  </g>
  <g>
    <path d="M-2190.22,156.21c-.41-.26,6.88-2.42,13.12-19.34,4.85-13.12,4.97-29.66-1.24-46.96-4.83-13.44-14.69-32.81-54.99-31.42l-100.33.31s-27.18-3.46-27.18,23.83c0,13.16.09,171.62,0,174.73,0,15.54,7.18,27.28,23.43,27.28l105.32.03c45.2.04,69.87-39.62,68.43-75.64,1.86-25.54-13.44-44.53-26.56-52.82Z" class="cls-7"/>
    <path d="M-2189.47,71.53c-15.66.14-32.22.24-46.29,5.85-5.81,2.46-11.94,7.41-12.74,14.06-.38,2.88-.67,6.37,1.89,8.26,1.46,1.14,3.5,1.56,5.28.99,1.47-.43,2.83-1.7,3.5-3.07.9-2.59-.32-5.9,2.55-7.74,4.15-3.26,9.25-4.34,14.35-5.33,12.5-1.89,26.06-1.97,39.5-1.83l.43.92-3.47,1.29c-13.87,5.52-27.69,11.19-40.01,20.57-8.07,6.46-14.34,14.91-12.74,25.48,1.98,10,11.65,19.58,21.7,21.52,14.1,2.31,24.02-10.71,29.77-21.47,4.68-8.87,8.07-18.26,10.86-27.94,3.11,16.33.14,34.07-9.24,47.14-1.76,2.21-3.69,4.25-6.05,5.75,14.25,9.25,23.63,24.39,26.1,40.53.99,6.61.28,13.45.42,20.25-1.55,18.92-8.54,35.91-22.23,49.5-13.21,12.7-29.81,18.64-47.94,18.17,19.39-17.46,33.03-39.54,43.46-61.86,1.33-3.16,2.59-6.37,3.5-9.58.34-2.03-.32-4.01-1.88-5.33-2.41-1.79-5.52-1.98-8.3-2.88l-26.38-6.84c-14.63-3.3-29.73-6.65-45.58-4.76-8.64,1.04-17.85,5.52-20.95,14.3-.71,2.59-2.12,6.18.09,8.54,1.32,1.61,3.21,2.22,5.24,1.94,2.02-.14,4.01-1.84,4.53-3.77.19-3.63,3.07-7.13,6.46-8.35,10.9-3.97,24.12-1.42,35.16.33,13.17,2.6,25.95,5.99,38.69,9.48-.71,2.22-.94,2.69-2.02,4.82-1.89.24-5.57.24-7.89.61l-17.27,2.46c-13.35,2.22-26.46,5.05-38.54,10.38-10.86,4.86-23.46,14.77-23.08,28.17.14,8.58,3.59,15.85,8.54,22.41l-34.45.18c-1.51-13.54.66-28.07,12.55-36.19,3.78-2.59,8.02-3.87,12.37-5.04,1.65-.76,2.92-2.46,3.21-4.15.24-1.94-.42-3.63-1.7-4.96-2.92-2.83-6.93-.75-10.1.05-7.03,2.5-13.97,6.84-18.77,13.16,2.96-31,13.77-58.7,30.44-84.04,10.75-15.71,24.82-31.66,41.14-42.33,2.03-1.27,4.63-2.97,4.76-5.61.15-1.89-.52-3.45-1.84-4.72-1.36-1.23-3.17-1.75-5.1-1.32l-1.65.62c-20.72,13.4-38.79,34.02-51.24,54.88-.71-12.64-3.92-25.01-9.73-35.91-1.32-2.31-3.59-3.21-6.14-2.83-1.74.38-3.77,1.79-4.25,3.68-1.27,3.96,2.27,6.7,3.12,10.14,7.22,15.67,6.84,36.38,2.74,53.37-11.14,27.51-17.5,59.79-11.75,91.26-9.3-.19-19.06,1.51-25.86-5.01-6.51-5.84-8.21-14.06-8.21-22.69l-.33-88.33c9.24,1.55,18.17-1.18,25.72-5.38,8.54-5.19,12.69-14.06,11.93-23.97-.84-10.33-5.32-19.15-10.1-27.88-7.08-11.89-16.23-23.22-25.43-34.03-.61-.63-1.24-1.43-1.77-1.9.38-1.84.73-2.68,1.48-4.43l.42.1c15.68,8.82,31.81,16.61,46.2,28.55,4.25,4.1,8.68,8.26,9.82,13.82,1.04,3.64-2.18,5.94-2.51,9.3.05,1.89.99,3.63,2.69,4.66,1.47,1.09,3.68,1.04,5.34.38,2.4-1.09,3.35-3.59,4.39-5.71,4.76-12.08-3.35-22.69-12.18-30.62-10.81-9.25-22.74-15.85-34.54-22.65l-11.85-6.46c7.08-4.77,16.57-3.26,25.58-3.5l95.56-.57.04-.04c15.06.24,29.88,2.22,40.58,13.16Z" class="cls-6"/>
    <path d="M-2335.37,134.44c1.55,5.84,1.84,13.39-3.26,17.64-4.81,3.97-10.57,5.66-16.9,5.95-1.88,0-3.72-.38-5.32-1l.07-65c10.75,13.21,20.54,26.69,25.41,42.41Z" class="cls-6"/>
    <path d="M-2201.88,135.29c-3.21,3.49-6.98,7.22-11.94,6.23-4.95-1.32-9.67-6.19-11.8-10.81-2.4-6.65,3.21-12.17,8.07-16.42,10.1-7.65,21.33-12.7,32.65-17.36-3.77,13.45-8.25,26.84-16.99,38.36Z" class="cls-6"/>
    <path d="M-2207.72,232.02c-8.73,15.43-19.12,31.24-32.8,43.51-6.24,4.81-12.46,9.91-21.05,8.91-7.37-1.6-11.94-9.25-14.54-15.57-1.79-4.39-1.65-10.38,1.18-14.25,6.42-8.35,15.95-11.61,25.06-14.63,13.59-4.1,27.6-6.32,42.15-7.97Z" class="cls-6"/>
  </g>
  <text transform="translate(-2115.09 308.43)" class="cls-4"><tspan y="0" x="0">– lokalavis for Midt-Telemark</tspan></text>
  <g>
    <path d="M-2031.98,702.71c1.49.25,3.22.49,3.72.49,23.29,3.72,39.15,19.33,39.15,38.91,0,30.97-31.47,42.87-80.04,42.87-4.46,0-18.34-.49-23.04-.49-6.44,0-17.35.25-25.52.49-.75,0-.75-.25-.75-.49,0-1.24.5-2.98,1.49-3.22l11.15-2.23c1.73-.5,2.73-1.49,2.73-3.97.25-9.91-.25-56.25-.25-66.66,0-11.4-.5-57.49-.74-65.42,0-2.73-.75-3.72-2.73-3.96l-11.15-.99c-1.24-.25-1.73-2.23-1.73-3.47,0-.25.25-.49.99-.49,13.63-1.74,35.19-3.22,57.98-3.22,43.12,0,63.44,11.89,63.44,35.19,0,17.09-15.86,29.98-30.73,34.44-.99.25-2.48.74-3.96,1.24v.99ZM-2026.03,744.34c0-22.05-20.32-35.69-38.41-35.69-2.23,0-4.71,0-5.7.75-.49,9.42-1.49,61.95-1.49,67.15,0,2.23,3.22,3.47,6.69,3.47,21.81,0,38.9-10.9,38.9-35.43v-.25ZM-2061.97,635.31c-3.47,0-5.45,1.73-5.45,4.21-1.24,17.84-2.48,57.74-2.48,63.44.99.74,3.22.99,4.46.99,16.11,0,31.97-11.9,31.97-34.44s-12.64-34.2-28.25-34.2h-.25Z" class="cls-2"/>
    <path d="M-1907.76,669.75c10.16,0,19.57,1.98,27.75,5.95,3.72-5.7,7.19-11.15,10.9-16.6.5-.49.99-.74,1.73-.25,2.73,2.23,5.45,6.69,3.97,8.92-2.97,3.96-6.19,7.93-9.17,12.14,13.63,9.91,19.82,26.51,19.82,44.11,0,32.71-21.81,62.45-67.4,62.45-9.91,0-19.08-1.98-26.51-4.96-4.21,5.21-8.42,10.66-13.13,15.86-.75,1.24-3.22,1.49-5.45,1.49-.99,0-1.49-.5-.75-1.49,4.71-6.2,9.67-12.64,14.13-18.59-14.62-9.17-22.8-25.27-22.8-45.35,0-33.21,20.81-63.69,66.66-63.69h.25ZM-1913.96,674.46c-16.11,0-25.27,22.05-25.27,54.76,0,9.42,1.24,20.57,3.22,30.23,14.37-22.3,28.74-44.6,42.87-66.66-3.47-10.9-10.41-18.34-20.57-18.34h-.25ZM-1888.44,727.24c0-7.68-.74-16.11-1.73-24.53-14.37,20.57-28.74,41.63-43.36,62.94,4.21,9.91,11.89,16.11,20.57,16.11,17.84,0,24.53-23.04,24.53-54.27v-.25Z" class="cls-2"/>
    <path d="M-1772.72,716.58c.75-2.23,1.49-4.71,2.23-6.44,5.45-12.89,21.56-40.39,49.56-40.39,22.3,0,32.71,21.31,32.71,46.83,0,36.43-18.34,69.88-56.75,69.88-15.61,0-25.52-5.95-35.19-15.86-1.73-1.73-2.48-1.98-3.71-.49l-14.37,15.11c-.49.5-.99.5-1.24.5-1.98,0-5.45-1.24-5.45-1.98-.25-13.63-.75-65.42-.99-86.48-.25-17.1-.5-62.69-.74-67.65-.25-2.73-1.24-3.47-2.73-3.47l-11.89-.5c-.99,0-1.74-1.73-1.74-2.97,0-.74.25-.99.75-.99l49.56-5.45c1.73-.25,2.48.25,2.48,1.98,0,2.48-2.23,68.39-2.97,86.73,0,2.23-.5,8.18-.74,11.4l1.24.25ZM-1748.19,782c15.61,0,24.78-19.33,24.78-54.02,0-20.07-5.7-39.65-17.35-39.65-15.36,0-29.98,28.25-33.95,50.55-.25,1.73-.5,4.21-.5,5.7,0,2.23.5,5.21.5,6.44,2.73,20.57,14.87,30.97,26.27,30.97h.25Z" class="cls-2"/>
    <path d="M-1633.34,616.23c1.49-.25,1.98.25,1.98,1.98,0,3.22-1.73,52.04-2.23,80.78-.25,17.84-1.24,72.36-1.24,77.06,0,2.23.74,2.73,2.48,3.22l12.89,2.23c.74,0,1.49,1.74,1.49,2.98,0,.25,0,.49-.49.49-6.44-.25-18.34-.49-32.96-.49-13.63,0-24.28.25-29.49.49-.49,0-.74-.25-.74-.74,0-.75.5-2.48,1.49-2.73l12.14-2.23c1.73-.49,2.73-.99,2.73-2.97.5-6.94-.74-66.16-.74-74.83s-1.24-61.45-1.49-71.61c0-2.23-.74-3.47-2.97-3.47l-14.62-.74c-.99,0-1.98-1.73-1.98-2.97,0-.5,0-.99.74-.99l53.03-5.45Z" class="cls-2"/>
    <path d="M-1539.48,718.07c-.25-5.2-1.24-10.9-2.23-15.11-2.97-11.4-9.91-20.81-21.81-20.81s-23.05,5.2-35.93,16.35c-.25.25-.5.49-.74.49-.74,0-2.73-2.97-1.49-4.21,13.88-14.62,32.21-25.03,57.99-25.03,33.2,0,38.41,28,38.41,53.03,0,4.71-.5,18.83-.99,27.26-.5,11.15-.99,22.05-.99,26.02,0,1.74.49,2.48,2.48,2.98l10.41,2.47c.99.5,1.49,1.49,1.49,2.48,0,.5-.25.74-.99.74-2.97-.25-13.13-.25-22.8-.25-8.43,0-13.63,0-17.84.25-.74,0-1.24-.25-1.24-1.24-.25-1.98-.74-10.9-.74-16.35,0-1.24-.25-4.95-.25-6.94l-.74-.5c-.99,1.98-2.23,4.21-3.47,6.2-6.19,9.42-18.59,20.57-39.4,20.57-16.11,0-32.96-10.66-32.96-33.21s14.37-45.35,46.34-45.35c9.91,0,17.84,3.47,21.56,6.44,1.49.99,3.47,2.48,4.95,3.97l.99-.25ZM-1561.78,773.82c9.66,0,18.58-9.41,23.29-23.05.99-2.72,1.73-5.95,1.73-8.92,0-2.73-.74-5.95-2.23-9.42-3.22-8.42-10.9-18.34-21.56-18.34-12.64,0-18.34,16.11-18.34,32.96s6.94,26.76,16.85,26.76h.25Z" class="cls-2"/>
    <path d="M-1369.24,616.23c1.73-.25,1.98.74,1.98,1.98,0,1.49-2.23,79.79-2.23,90.2-.25,6.44-.75,64.43-.75,66.91,0,2.72.5,3.22,2.23,3.72l12.64,2.47c.74.25,1.49,1.49,1.49,2.48,0,.5-.25.74-.75.74-7.19-.25-14.87-.25-23.79-.25s-15.86,0-20.32.25c-.99,0-1.49-.49-1.49-2.23,0-3.47-.25-24.04-.25-29.24,0-3.72.49-7.19.49-10.9l-.99-.25c-.99,2.48-1.73,4.71-2.73,7.19-8.43,17.1-22.8,37.17-46.59,37.17-20.57,0-35.43-16.6-35.43-45.35,0-39.65,20.32-71.37,56.99-71.37,10.9,0,18.09,3.72,22.8,7.19,1.73,1.24,2.97,2.72,4.21,4.21l.74-.25c-.49-4.21-.74-9.91-.99-12.89-.25-4.46-.74-28.5-1.24-39.89-.25-1.98-1.24-3.22-3.22-3.22l-17.35-.99c-.99,0-1.73-1.98-1.73-3.22,0-.25,0-.5.74-.5l55.51-3.96ZM-1432.43,768.87c12.88,0,24.78-17.84,31.72-46.09.74-2.73,1.24-6.44,1.24-8.18,0-3.22-.49-7.43-.99-10.9-3.22-14.37-12.14-28.99-25.28-28.99-15.61,0-25.27,19.82-25.27,54.76,0,21.31,6.19,39.4,18.34,39.4h.25Z" class="cls-2"/>
  </g>
  <g>
    <path d="M-2190.22,706.61c-.41-.26,6.88-2.42,13.12-19.34,4.85-13.12,4.97-29.66-1.24-46.96-4.83-13.44-14.69-32.81-54.99-31.42l-100.33.31s-27.18-3.46-27.18,23.83c0,13.16.09,171.62,0,174.73,0,15.54,7.18,27.28,23.43,27.28l105.32.03c45.2.04,69.87-39.62,68.43-75.64,1.86-25.54-13.44-44.53-26.56-52.82Z" class="cls-7"/>
    <path d="M-2189.47,621.94c-15.66.14-32.22.24-46.29,5.85-5.81,2.46-11.94,7.41-12.74,14.06-.38,2.88-.67,6.37,1.89,8.26,1.46,1.14,3.5,1.56,5.28.99,1.47-.43,2.83-1.7,3.5-3.07.9-2.59-.32-5.9,2.55-7.74,4.15-3.26,9.25-4.34,14.35-5.33,12.5-1.89,26.06-1.97,39.5-1.83l.43.92-3.47,1.29c-13.87,5.52-27.69,11.19-40.01,20.57-8.07,6.46-14.34,14.91-12.74,25.48,1.98,10,11.65,19.58,21.7,21.52,14.1,2.31,24.02-10.71,29.77-21.47,4.68-8.87,8.07-18.26,10.86-27.94,3.11,16.33.14,34.07-9.24,47.14-1.76,2.21-3.69,4.25-6.05,5.75,14.25,9.25,23.63,24.39,26.1,40.53.99,6.61.28,13.45.42,20.25-1.55,18.92-8.54,35.91-22.23,49.5-13.21,12.7-29.81,18.64-47.94,18.17,19.39-17.46,33.03-39.54,43.46-61.86,1.33-3.16,2.59-6.37,3.5-9.58.34-2.03-.32-4.01-1.88-5.33-2.41-1.79-5.52-1.98-8.3-2.88l-26.38-6.84c-14.63-3.3-29.73-6.65-45.58-4.76-8.64,1.04-17.85,5.52-20.95,14.3-.71,2.59-2.12,6.18.09,8.54,1.32,1.61,3.21,2.22,5.24,1.94,2.02-.14,4.01-1.84,4.53-3.77.19-3.63,3.07-7.13,6.46-8.35,10.9-3.97,24.12-1.42,35.16.33,13.17,2.6,25.95,5.99,38.69,9.48-.71,2.22-.94,2.69-2.02,4.82-1.89.24-5.57.24-7.89.61l-17.27,2.46c-13.35,2.22-26.46,5.05-38.54,10.38-10.86,4.86-23.46,14.77-23.08,28.17.14,8.58,3.59,15.85,8.54,22.41l-34.45.18c-1.51-13.54.66-28.07,12.55-36.19,3.78-2.59,8.02-3.87,12.37-5.04,1.65-.76,2.92-2.46,3.21-4.15.24-1.94-.42-3.63-1.7-4.96-2.92-2.83-6.93-.75-10.1.05-7.03,2.5-13.97,6.84-18.77,13.16,2.96-31,13.77-58.7,30.44-84.04,10.75-15.71,24.82-31.66,41.14-42.33,2.03-1.27,4.63-2.97,4.76-5.61.15-1.89-.52-3.45-1.84-4.72-1.36-1.23-3.17-1.75-5.1-1.32l-1.65.62c-20.72,13.4-38.79,34.02-51.24,54.88-.71-12.64-3.92-25.01-9.73-35.91-1.32-2.31-3.59-3.21-6.14-2.83-1.74.38-3.77,1.79-4.25,3.68-1.27,3.96,2.27,6.7,3.12,10.14,7.22,15.67,6.84,36.38,2.74,53.37-11.14,27.51-17.5,59.79-11.75,91.26-9.3-.19-19.06,1.51-25.86-5.01-6.51-5.84-8.21-14.06-8.21-22.69l-.33-88.33c9.24,1.55,18.17-1.18,25.72-5.38,8.54-5.19,12.69-14.06,11.93-23.97-.84-10.33-5.32-19.15-10.1-27.88-7.08-11.89-16.23-23.22-25.43-34.03-.61-.63-1.24-1.43-1.77-1.9.38-1.84.73-2.68,1.48-4.43l.42.1c15.68,8.82,31.81,16.61,46.2,28.55,4.25,4.1,8.68,8.26,9.82,13.82,1.04,3.64-2.18,5.94-2.51,9.3.05,1.89.99,3.63,2.69,4.66,1.47,1.09,3.68,1.04,5.34.38,2.4-1.09,3.35-3.59,4.39-5.71,4.76-12.08-3.35-22.69-12.18-30.62-10.81-9.25-22.74-15.85-34.54-22.65l-11.85-6.46c7.08-4.77,16.57-3.26,25.58-3.5l95.56-.57.04-.04c15.06.24,29.88,2.22,40.58,13.16Z" class="cls-6"/>
    <path d="M-2335.37,684.84c1.55,5.84,1.84,13.39-3.26,17.64-4.81,3.97-10.57,5.66-16.9,5.95-1.88,0-3.72-.38-5.32-1l.07-65c10.75,13.21,20.54,26.69,25.41,42.41Z" class="cls-6"/>
    <path d="M-2201.88,685.69c-3.21,3.49-6.98,7.22-11.94,6.23-4.95-1.32-9.67-6.19-11.8-10.81-2.4-6.65,3.21-12.17,8.07-16.42,10.1-7.65,21.33-12.7,32.65-17.36-3.77,13.45-8.25,26.84-16.99,38.36Z" class="cls-6"/>
    <path d="M-2207.72,782.43c-8.73,15.43-19.12,31.24-32.8,43.51-6.24,4.81-12.46,9.91-21.05,8.91-7.37-1.6-11.94-9.25-14.54-15.57-1.79-4.39-1.65-10.38,1.18-14.25,6.42-8.35,15.95-11.61,25.06-14.63,13.59-4.1,27.6-6.32,42.15-7.97Z" class="cls-6"/>
  </g>
  <text transform="translate(-2115.09 862.04)" class="cls-1"><tspan y="0" x="0">lokalavis for Midt-Telemark</tspan></text>
  <g>
    <path d="M-2031.98,1289.48c1.49.25,3.22.49,3.72.49,23.29,3.72,39.15,19.33,39.15,38.91,0,30.97-31.47,42.87-80.04,42.87-4.46,0-18.34-.49-23.04-.49-6.44,0-17.35.25-25.52.49-.75,0-.75-.25-.75-.49,0-1.24.5-2.98,1.49-3.22l11.15-2.23c1.73-.5,2.73-1.49,2.73-3.97.25-9.91-.25-56.25-.25-66.66,0-11.4-.5-57.49-.74-65.42,0-2.73-.75-3.72-2.73-3.96l-11.15-.99c-1.24-.25-1.73-2.23-1.73-3.47,0-.25.25-.49.99-.49,13.63-1.74,35.19-3.22,57.98-3.22,43.12,0,63.44,11.89,63.44,35.19,0,17.09-15.86,29.98-30.73,34.44-.99.25-2.48.74-3.96,1.24v.99ZM-2026.03,1331.11c0-22.05-20.32-35.69-38.41-35.69-2.23,0-4.71,0-5.7.75-.49,9.42-1.49,61.95-1.49,67.15,0,2.23,3.22,3.47,6.69,3.47,21.81,0,38.9-10.9,38.9-35.43v-.25ZM-2061.97,1222.08c-3.47,0-5.45,1.73-5.45,4.21-1.24,17.84-2.48,57.74-2.48,63.44.99.74,3.22.99,4.46.99,16.11,0,31.97-11.9,31.97-34.44s-12.64-34.2-28.25-34.2h-.25Z" class="cls-2"/>
    <path d="M-1907.76,1256.52c10.16,0,19.57,1.98,27.75,5.95,3.72-5.7,7.19-11.15,10.9-16.6.5-.49.99-.74,1.73-.25,2.73,2.23,5.45,6.69,3.97,8.92-2.97,3.96-6.19,7.93-9.17,12.14,13.63,9.91,19.82,26.51,19.82,44.11,0,32.71-21.81,62.45-67.4,62.45-9.91,0-19.08-1.98-26.51-4.96-4.21,5.21-8.42,10.66-13.13,15.86-.75,1.24-3.22,1.49-5.45,1.49-.99,0-1.49-.5-.75-1.49,4.71-6.2,9.67-12.64,14.13-18.59-14.62-9.17-22.8-25.27-22.8-45.35,0-33.21,20.81-63.69,66.66-63.69h.25ZM-1913.96,1261.23c-16.11,0-25.27,22.05-25.27,54.76,0,9.42,1.24,20.57,3.22,30.23,14.37-22.3,28.74-44.6,42.87-66.66-3.47-10.9-10.41-18.34-20.57-18.34h-.25ZM-1888.44,1314.01c0-7.68-.74-16.11-1.73-24.53-14.37,20.57-28.74,41.63-43.36,62.94,4.21,9.91,11.89,16.11,20.57,16.11,17.84,0,24.53-23.04,24.53-54.27v-.25Z" class="cls-2"/>
    <path d="M-1772.72,1303.35c.75-2.23,1.49-4.71,2.23-6.44,5.45-12.89,21.56-40.39,49.56-40.39,22.3,0,32.71,21.31,32.71,46.83,0,36.43-18.34,69.88-56.75,69.88-15.61,0-25.52-5.95-35.19-15.86-1.73-1.73-2.48-1.98-3.71-.49l-14.37,15.11c-.49.5-.99.5-1.24.5-1.98,0-5.45-1.24-5.45-1.98-.25-13.63-.75-65.42-.99-86.48-.25-17.1-.5-62.69-.74-67.65-.25-2.73-1.24-3.47-2.73-3.47l-11.89-.5c-.99,0-1.74-1.73-1.74-2.97,0-.74.25-.99.75-.99l49.56-5.45c1.73-.25,2.48.25,2.48,1.98,0,2.48-2.23,68.39-2.97,86.73,0,2.23-.5,8.18-.74,11.4l1.24.25ZM-1748.19,1368.77c15.61,0,24.78-19.33,24.78-54.02,0-20.07-5.7-39.65-17.35-39.65-15.36,0-29.98,28.25-33.95,50.55-.25,1.73-.5,4.21-.5,5.7,0,2.23.5,5.21.5,6.44,2.73,20.57,14.87,30.97,26.27,30.97h.25Z" class="cls-2"/>
    <path d="M-1633.34,1203c1.49-.25,1.98.25,1.98,1.98,0,3.22-1.73,52.04-2.23,80.78-.25,17.84-1.24,72.36-1.24,77.06,0,2.23.74,2.73,2.48,3.22l12.89,2.23c.74,0,1.49,1.74,1.49,2.98,0,.25,0,.49-.49.49-6.44-.25-18.34-.49-32.96-.49-13.63,0-24.28.25-29.49.49-.49,0-.74-.25-.74-.74,0-.75.5-2.48,1.49-2.73l12.14-2.23c1.73-.49,2.73-.99,2.73-2.97.5-6.94-.74-66.16-.74-74.83s-1.24-61.45-1.49-71.61c0-2.23-.74-3.47-2.97-3.47l-14.62-.74c-.99,0-1.98-1.73-1.98-2.97,0-.5,0-.99.74-.99l53.03-5.45Z" class="cls-2"/>
    <path d="M-1539.48,1304.84c-.25-5.2-1.24-10.9-2.23-15.11-2.97-11.4-9.91-20.81-21.81-20.81s-23.05,5.2-35.93,16.35c-.25.25-.5.49-.74.49-.74,0-2.73-2.97-1.49-4.21,13.88-14.62,32.21-25.03,57.99-25.03,33.2,0,38.41,28,38.41,53.03,0,4.71-.5,18.83-.99,27.26-.5,11.15-.99,22.05-.99,26.02,0,1.74.49,2.48,2.48,2.98l10.41,2.47c.99.5,1.49,1.49,1.49,2.48,0,.5-.25.74-.99.74-2.97-.25-13.13-.25-22.8-.25-8.43,0-13.63,0-17.84.25-.74,0-1.24-.25-1.24-1.24-.25-1.98-.74-10.9-.74-16.35,0-1.24-.25-4.95-.25-6.94l-.74-.5c-.99,1.98-2.23,4.21-3.47,6.2-6.19,9.42-18.59,20.57-39.4,20.57-16.11,0-32.96-10.66-32.96-33.21s14.37-45.35,46.34-45.35c9.91,0,17.84,3.47,21.56,6.44,1.49.99,3.47,2.48,4.95,3.97l.99-.25ZM-1561.78,1360.59c9.66,0,18.58-9.41,23.29-23.05.99-2.72,1.73-5.95,1.73-8.92,0-2.73-.74-5.95-2.23-9.42-3.22-8.42-10.9-18.34-21.56-18.34-12.64,0-18.34,16.11-18.34,32.96s6.94,26.76,16.85,26.76h.25Z" class="cls-2"/>
    <path d="M-1369.24,1203c1.73-.25,1.98.74,1.98,1.98,0,1.49-2.23,79.79-2.23,90.2-.25,6.44-.75,64.43-.75,66.91,0,2.72.5,3.22,2.23,3.72l12.64,2.47c.74.25,1.49,1.49,1.49,2.48,0,.5-.25.74-.75.74-7.19-.25-14.87-.25-23.79-.25s-15.86,0-20.32.25c-.99,0-1.49-.49-1.49-2.23,0-3.47-.25-24.04-.25-29.24,0-3.72.49-7.19.49-10.9l-.99-.25c-.99,2.48-1.73,4.71-2.73,7.19-8.43,17.1-22.8,37.17-46.59,37.17-20.57,0-35.43-16.6-35.43-45.35,0-39.65,20.32-71.37,56.99-71.37,10.9,0,18.09,3.72,22.8,7.19,1.73,1.24,2.97,2.72,4.21,4.21l.74-.25c-.49-4.21-.74-9.91-.99-12.89-.25-4.46-.74-28.5-1.24-39.89-.25-1.98-1.24-3.22-3.22-3.22l-17.35-.99c-.99,0-1.73-1.98-1.73-3.22,0-.25,0-.5.74-.5l55.51-3.96ZM-1432.43,1355.63c12.88,0,24.78-17.84,31.72-46.09.74-2.73,1.24-6.44,1.24-8.18,0-3.22-.49-7.43-.99-10.9-3.22-14.37-12.14-28.99-25.28-28.99-15.61,0-25.27,19.82-25.27,54.76,0,21.31,6.19,39.4,18.34,39.4h.25Z" class="cls-2"/>
  </g>
  <g>
    <path d="M-2190.22,1293.38c-.41-.26,6.88-2.42,13.12-19.34,4.85-13.12,4.97-29.66-1.24-46.96-4.83-13.44-14.69-32.81-54.99-31.42l-100.33.31s-27.18-3.46-27.18,23.83c0,13.16.09,171.62,0,174.73,0,15.54,7.18,27.28,23.43,27.28l105.32.03c45.2.04,69.87-39.62,68.43-75.64,1.86-25.54-13.44-44.53-26.56-52.82Z" class="cls-7"/>
    <path d="M-2189.47,1208.71c-15.66.14-32.22.24-46.29,5.85-5.81,2.46-11.94,7.41-12.74,14.06-.38,2.88-.67,6.37,1.89,8.26,1.46,1.14,3.5,1.56,5.28.99,1.47-.43,2.83-1.7,3.5-3.07.9-2.59-.32-5.9,2.55-7.74,4.15-3.26,9.25-4.34,14.35-5.33,12.5-1.89,26.06-1.97,39.5-1.83l.43.92-3.47,1.29c-13.87,5.52-27.69,11.19-40.01,20.57-8.07,6.46-14.34,14.91-12.74,25.48,1.98,10,11.65,19.58,21.7,21.52,14.1,2.31,24.02-10.71,29.77-21.47,4.68-8.87,8.07-18.26,10.86-27.94,3.11,16.33.14,34.07-9.24,47.14-1.76,2.21-3.69,4.25-6.05,5.75,14.25,9.25,23.63,24.39,26.1,40.53.99,6.61.28,13.45.42,20.25-1.55,18.92-8.54,35.91-22.23,49.5-13.21,12.7-29.81,18.64-47.94,18.17,19.39-17.46,33.03-39.54,43.46-61.86,1.33-3.16,2.59-6.37,3.5-9.58.34-2.03-.32-4.01-1.88-5.33-2.41-1.79-5.52-1.98-8.3-2.88l-26.38-6.84c-14.63-3.3-29.73-6.65-45.58-4.76-8.64,1.04-17.85,5.52-20.95,14.3-.71,2.59-2.12,6.18.09,8.54,1.32,1.61,3.21,2.22,5.24,1.94,2.02-.14,4.01-1.84,4.53-3.77.19-3.63,3.07-7.13,6.46-8.35,10.9-3.97,24.12-1.42,35.16.33,13.17,2.6,25.95,5.99,38.69,9.48-.71,2.22-.94,2.69-2.02,4.82-1.89.24-5.57.24-7.89.61l-17.27,2.46c-13.35,2.22-26.46,5.05-38.54,10.38-10.86,4.86-23.46,14.77-23.08,28.17.14,8.58,3.59,15.85,8.54,22.41l-34.45.18c-1.51-13.54.66-28.07,12.55-36.19,3.78-2.59,8.02-3.87,12.37-5.04,1.65-.76,2.92-2.46,3.21-4.15.24-1.94-.42-3.63-1.7-4.96-2.92-2.83-6.93-.75-10.1.05-7.03,2.5-13.97,6.84-18.77,13.16,2.96-31,13.77-58.7,30.44-84.04,10.75-15.71,24.82-31.66,41.14-42.33,2.03-1.27,4.63-2.97,4.76-5.61.15-1.89-.52-3.45-1.84-4.72-1.36-1.23-3.17-1.75-5.1-1.32l-1.65.62c-20.72,13.4-38.79,34.02-51.24,54.88-.71-12.64-3.92-25.01-9.73-35.91-1.32-2.31-3.59-3.21-6.14-2.83-1.74.38-3.77,1.79-4.25,3.68-1.27,3.96,2.27,6.7,3.12,10.14,7.22,15.67,6.84,36.38,2.74,53.37-11.14,27.51-17.5,59.79-11.75,91.26-9.3-.19-19.06,1.51-25.86-5.01-6.51-5.84-8.21-14.06-8.21-22.69l-.33-88.33c9.24,1.55,18.17-1.18,25.72-5.38,8.54-5.19,12.69-14.06,11.93-23.97-.84-10.33-5.32-19.15-10.1-27.88-7.08-11.89-16.23-23.22-25.43-34.03-.61-.63-1.24-1.43-1.77-1.9.38-1.84.73-2.68,1.48-4.43l.42.1c15.68,8.82,31.81,16.61,46.2,28.55,4.25,4.1,8.68,8.26,9.82,13.82,1.04,3.64-2.18,5.94-2.51,9.3.05,1.89.99,3.63,2.69,4.66,1.47,1.09,3.68,1.04,5.34.38,2.4-1.09,3.35-3.59,4.39-5.71,4.76-12.08-3.35-22.69-12.18-30.62-10.81-9.25-22.74-15.85-34.54-22.65l-11.85-6.46c7.08-4.77,16.57-3.26,25.58-3.5l95.56-.57.04-.04c15.06.24,29.88,2.22,40.58,13.16Z" class="cls-6"/>
    <path d="M-2335.37,1271.61c1.55,5.84,1.84,13.39-3.26,17.64-4.81,3.97-10.57,5.66-16.9,5.95-1.88,0-3.72-.38-5.32-1l.07-65c10.75,13.21,20.54,26.69,25.41,42.41Z" class="cls-6"/>
    <path d="M-2201.88,1272.46c-3.21,3.49-6.98,7.22-11.94,6.23-4.95-1.32-9.67-6.19-11.8-10.81-2.4-6.65,3.21-12.17,8.07-16.42,10.1-7.65,21.33-12.7,32.65-17.36-3.77,13.45-8.25,26.84-16.99,38.36Z" class="cls-6"/>
    <path d="M-2207.72,1369.19c-8.73,15.43-19.12,31.24-32.8,43.51-6.24,4.81-12.46,9.91-21.05,8.91-7.37-1.6-11.94-9.25-14.54-15.57-1.79-4.39-1.65-10.38,1.18-14.25,6.42-8.35,15.95-11.61,25.06-14.63,13.59-4.1,27.6-6.32,42.15-7.97Z" class="cls-6"/>
  </g>
  <text transform="translate(-2115.09 1446.97)" class="cls-3"><tspan y="0" x="0">lokalavis for Midt-Telemark</tspan></text>
  <g>
    <path d="M586.36,188.74c1.49.25,3.22.49,3.72.49,23.29,3.72,39.16,19.33,39.16,38.91,0,30.98-31.47,42.87-80.05,42.87-4.46,0-18.34-.49-23.04-.49-6.44,0-17.35.25-25.53.49-.75,0-.75-.25-.75-.49,0-1.24.5-2.98,1.49-3.22l11.15-2.23c1.73-.5,2.73-1.49,2.73-3.97.25-9.92-.25-56.25-.25-66.66,0-11.4-.5-57.49-.74-65.43,0-2.73-.75-3.72-2.73-3.96l-11.15-.99c-1.24-.25-1.73-2.23-1.73-3.47,0-.25.25-.49.99-.49,13.63-1.74,35.19-3.22,57.99-3.22,43.12,0,63.44,11.9,63.44,35.19,0,17.1-15.86,29.98-30.73,34.45-.99.25-2.48.74-3.96,1.24v.99ZM592.31,230.38c0-22.06-20.32-35.69-38.41-35.69-2.23,0-4.71,0-5.7.75-.49,9.42-1.49,61.96-1.49,67.16,0,2.23,3.22,3.47,6.69,3.47,21.81,0,38.91-10.9,38.91-35.44v-.25ZM556.38,121.34c-3.47,0-5.45,1.73-5.45,4.21-1.24,17.84-2.48,57.74-2.48,63.44.99.74,3.22.99,4.46.99,16.11,0,31.97-11.9,31.97-34.45s-12.64-34.2-28.25-34.2h-.25Z" class="cls-2"/>
    <path d="M710.6,155.78c10.16,0,19.58,1.98,27.75,5.95,3.72-5.7,7.19-11.15,10.9-16.6.5-.49.99-.74,1.73-.25,2.73,2.23,5.45,6.69,3.97,8.92-2.97,3.96-6.19,7.93-9.17,12.14,13.63,9.91,19.82,26.52,19.82,44.11,0,32.71-21.81,62.45-67.41,62.45-9.91,0-19.08-1.98-26.52-4.96-4.21,5.21-8.42,10.66-13.13,15.87-.75,1.24-3.22,1.49-5.45,1.49-.99,0-1.49-.5-.75-1.49,4.71-6.2,9.67-12.64,14.13-18.59-14.62-9.17-22.8-25.28-22.8-45.35,0-33.21,20.82-63.69,66.66-63.69h.25ZM704.4,160.49c-16.11,0-25.28,22.06-25.28,54.77,0,9.42,1.24,20.57,3.22,30.23,14.37-22.3,28.75-44.61,42.87-66.66-3.47-10.9-10.41-18.34-20.57-18.34h-.25ZM729.92,213.28c0-7.68-.74-16.11-1.73-24.53-14.37,20.57-28.75,41.64-43.37,62.95,4.21,9.92,11.9,16.11,20.57,16.11,17.85,0,24.53-23.04,24.53-54.27v-.25Z" class="cls-2"/>
    <path d="M845.65,202.62c.75-2.23,1.49-4.71,2.23-6.44,5.45-12.89,21.56-40.4,49.57-40.4,22.3,0,32.71,21.31,32.71,46.84,0,36.43-18.34,69.89-56.75,69.89-15.61,0-25.53-5.95-35.19-15.87-1.73-1.73-2.48-1.98-3.71-.49l-14.38,15.12c-.49.5-.99.5-1.24.5-1.98,0-5.45-1.24-5.45-1.98-.25-13.63-.75-65.42-.99-86.49-.25-17.1-.5-62.7-.74-67.66-.25-2.73-1.24-3.47-2.73-3.47l-11.9-.5c-.99,0-1.74-1.73-1.74-2.97,0-.74.25-.99.75-.99l49.56-5.45c1.73-.25,2.48.25,2.48,1.98,0,2.48-2.23,68.4-2.97,86.74,0,2.23-.5,8.18-.74,11.4l1.24.25ZM870.18,268.05c15.61,0,24.78-19.33,24.78-54.02,0-20.07-5.7-39.65-17.35-39.65-15.36,0-29.99,28.25-33.95,50.56-.25,1.73-.5,4.21-.5,5.7,0,2.23.5,5.21.5,6.44,2.73,20.57,14.87,30.98,26.27,30.98h.25Z" class="cls-2"/>
    <path d="M985.05,102.25c1.49-.25,1.98.25,1.98,1.98,0,3.22-1.73,52.04-2.23,80.79-.25,17.85-1.24,72.37-1.24,77.07,0,2.23.74,2.73,2.48,3.22l12.89,2.23c.74,0,1.49,1.74,1.49,2.98,0,.25,0,.49-.49.49-6.44-.25-18.34-.49-32.96-.49-13.63,0-24.29.25-29.49.49-.49,0-.74-.25-.74-.74,0-.75.5-2.48,1.49-2.73l12.14-2.23c1.73-.49,2.73-.99,2.73-2.97.5-6.94-.74-66.17-.74-74.84s-1.24-61.46-1.49-71.62c0-2.23-.74-3.47-2.97-3.47l-14.62-.74c-.99,0-1.98-1.73-1.98-2.97,0-.5,0-.99.74-.99l53.03-5.45Z" class="cls-2"/>
    <path d="M1078.92,204.11c-.25-5.2-1.24-10.9-2.23-15.12-2.97-11.4-9.91-20.82-21.81-20.82s-23.05,5.2-35.94,16.36c-.25.25-.5.49-.74.49-.74,0-2.73-2.97-1.49-4.21,13.88-14.62,32.22-25.03,57.99-25.03,33.21,0,38.41,28,38.41,53.03,0,4.71-.5,18.83-.99,27.26-.5,11.15-.99,22.06-.99,26.02,0,1.74.49,2.48,2.48,2.98l10.41,2.47c.99.5,1.49,1.49,1.49,2.48,0,.5-.25.74-.99.74-2.97-.25-13.13-.25-22.8-.25-8.43,0-13.63,0-17.84.25-.74,0-1.24-.25-1.24-1.24-.25-1.98-.74-10.9-.74-16.36,0-1.24-.25-4.95-.25-6.94l-.74-.5c-.99,1.98-2.23,4.22-3.47,6.2-6.19,9.42-18.59,20.57-39.4,20.57-16.11,0-32.96-10.66-32.96-33.21s14.37-45.35,46.34-45.35c9.92,0,17.85,3.47,21.56,6.44,1.49.99,3.47,2.48,4.95,3.97l.99-.25ZM1056.62,259.87c9.66,0,18.58-9.42,23.29-23.05.99-2.72,1.73-5.95,1.73-8.92,0-2.73-.74-5.95-2.23-9.42-3.22-8.42-10.9-18.34-21.56-18.34-12.64,0-18.34,16.11-18.34,32.96s6.94,26.77,16.85,26.77h.25Z" class="cls-2"/>
    <path d="M1249.18,102.25c1.73-.25,1.98.74,1.98,1.98,0,1.49-2.23,79.8-2.23,90.21-.25,6.44-.75,64.43-.75,66.91,0,2.72.5,3.22,2.23,3.72l12.64,2.47c.74.25,1.49,1.49,1.49,2.48,0,.5-.25.74-.75.74-7.19-.25-14.87-.25-23.79-.25s-15.86,0-20.32.25c-.99,0-1.49-.49-1.49-2.23,0-3.47-.25-24.04-.25-29.24,0-3.72.49-7.19.49-10.9l-.99-.25c-.99,2.48-1.73,4.71-2.73,7.19-8.43,17.1-22.8,37.18-46.59,37.18-20.57,0-35.44-16.6-35.44-45.35,0-39.65,20.32-71.37,57-71.37,10.9,0,18.09,3.72,22.8,7.19,1.73,1.24,2.97,2.72,4.21,4.21l.74-.25c-.49-4.21-.74-9.91-.99-12.89-.25-4.46-.74-28.5-1.24-39.9-.25-1.98-1.24-3.22-3.22-3.22l-17.35-.99c-.99,0-1.73-1.98-1.73-3.22,0-.25,0-.5.74-.5l55.51-3.96ZM1185.98,254.91c12.88,0,24.78-17.84,31.72-46.09.74-2.73,1.24-6.44,1.24-8.18,0-3.22-.49-7.44-.99-10.9-3.22-14.37-12.14-28.99-25.28-28.99-15.61,0-25.28,19.82-25.28,54.77,0,21.31,6.19,39.4,18.34,39.4h.25Z" class="cls-2"/>
  </g>
  <g>
    <path d="M428.1,192.64c-.41-.26,6.88-2.42,13.12-19.34,4.85-13.12,4.97-29.67-1.24-46.96-4.83-13.44-14.69-32.81-55-31.43l-100.34.31s-27.18-3.46-27.18,23.83c0,13.16.09,171.64,0,174.75,0,15.54,7.18,27.28,23.43,27.28l105.34.03c45.2.04,69.87-39.62,68.44-75.65,1.86-25.54-13.45-44.54-26.57-52.82Z" class="cls-7"/>
    <path d="M428.85,107.96c-15.66.14-32.23.24-46.29,5.85-5.81,2.46-11.95,7.41-12.74,14.06-.38,2.88-.67,6.37,1.89,8.26,1.46,1.14,3.5,1.56,5.28,1,1.47-.43,2.83-1.7,3.5-3.07.9-2.59-.32-5.9,2.55-7.74,4.15-3.26,9.25-4.34,14.35-5.33,12.5-1.89,26.06-1.97,39.51-1.83l.43.92-3.47,1.29c-13.87,5.52-27.7,11.19-40.01,20.57-8.07,6.46-14.35,14.91-12.74,25.49,1.98,10,11.65,19.58,21.71,21.52,14.1,2.31,24.02-10.71,29.77-21.47,4.68-8.87,8.07-18.27,10.86-27.94,3.11,16.33.14,34.07-9.24,47.15-1.76,2.22-3.69,4.25-6.05,5.75,14.25,9.25,23.64,24.4,26.1,40.54.99,6.61.28,13.45.42,20.25-1.55,18.92-8.54,35.91-22.23,49.5-13.21,12.7-29.81,18.64-47.95,18.17,19.39-17.46,33.03-39.55,43.46-61.86,1.33-3.16,2.6-6.37,3.5-9.58.34-2.03-.32-4.01-1.88-5.33-2.41-1.79-5.52-1.98-8.3-2.88l-26.39-6.84c-14.63-3.3-29.73-6.65-45.59-4.76-8.65,1.04-17.85,5.52-20.95,14.3-.71,2.59-2.12,6.18.09,8.54,1.32,1.61,3.21,2.22,5.24,1.94,2.02-.14,4.01-1.84,4.53-3.77.19-3.63,3.07-7.13,6.46-8.35,10.9-3.97,24.12-1.42,35.16.33,13.17,2.6,25.96,5.99,38.7,9.48-.71,2.22-.94,2.69-2.02,4.82-1.89.24-5.57.24-7.89.61l-17.27,2.46c-13.35,2.22-26.47,5.05-38.55,10.38-10.86,4.86-23.46,14.77-23.09,28.18.14,8.58,3.59,15.85,8.54,22.42l-34.45.18c-1.51-13.54.66-28.08,12.55-36.19,3.78-2.59,8.02-3.87,12.37-5.05,1.65-.76,2.92-2.46,3.21-4.15.24-1.94-.42-3.63-1.7-4.96-2.92-2.83-6.93-.75-10.1.05-7.03,2.5-13.97,6.84-18.78,13.17,2.96-31,13.77-58.71,30.44-84.05,10.75-15.71,24.82-31.66,41.15-42.33,2.03-1.27,4.63-2.97,4.76-5.61.15-1.89-.52-3.45-1.84-4.72-1.36-1.23-3.17-1.75-5.1-1.32l-1.65.62c-20.72,13.4-38.8,34.02-51.25,54.88-.71-12.65-3.92-25.01-9.73-35.92-1.32-2.31-3.59-3.21-6.14-2.83-1.74.38-3.77,1.79-4.25,3.68-1.27,3.96,2.27,6.7,3.12,10.14,7.22,15.67,6.84,36.38,2.74,53.37-11.14,27.51-17.51,59.79-11.75,91.27-9.3-.19-19.06,1.51-25.86-5.01-6.51-5.85-8.21-14.06-8.21-22.7l-.33-88.34c9.24,1.55,18.17-1.18,25.72-5.38,8.54-5.19,12.69-14.06,11.93-23.98-.84-10.33-5.32-19.16-10.1-27.89-7.08-11.9-16.23-23.22-25.43-34.03-.61-.63-1.24-1.43-1.77-1.9.38-1.84.73-2.68,1.48-4.43l.42.1c15.68,8.82,31.81,16.61,46.2,28.55,4.25,4.1,8.69,8.26,9.82,13.83,1.04,3.64-2.18,5.94-2.51,9.3.05,1.89.99,3.63,2.69,4.67,1.47,1.09,3.68,1.04,5.34.38,2.4-1.09,3.35-3.59,4.39-5.71,4.76-12.08-3.35-22.7-12.18-30.63-10.81-9.25-22.74-15.86-34.54-22.65l-11.85-6.46c7.08-4.77,16.57-3.26,25.58-3.5l95.57-.57.04-.04c15.06.24,29.88,2.22,40.58,13.16Z" class="cls-6"/>
    <path d="M282.94,170.88c1.55,5.85,1.84,13.39-3.26,17.64-4.81,3.97-10.57,5.66-16.9,5.95-1.88,0-3.72-.38-5.32-1l.07-65.01c10.76,13.21,20.54,26.69,25.41,42.41Z" class="cls-6"/>
    <path d="M416.44,171.72c-3.21,3.49-6.98,7.22-11.94,6.23-4.95-1.32-9.67-6.19-11.8-10.81-2.4-6.65,3.21-12.17,8.07-16.42,10.1-7.65,21.34-12.7,32.66-17.36-3.77,13.45-8.26,26.85-16.99,38.37Z" class="cls-6"/>
    <path d="M410.6,268.47c-8.73,15.43-19.12,31.24-32.8,43.51-6.25,4.81-12.46,9.91-21.06,8.91-7.37-1.6-11.94-9.25-14.54-15.57-1.79-4.39-1.65-10.38,1.18-14.25,6.42-8.35,15.95-11.61,25.06-14.63,13.59-4.1,27.6-6.32,42.15-7.97Z" class="cls-6"/>
  </g>
  <g>
    <path d="M508.33,299.98h5.83v40.27h19.3v4.89h-25.13v-45.16Z" class="cls-2"/>
    <path d="M568.16,328.66c0,11.99-8.31,17.22-16.15,17.22-8.78,0-15.54-6.43-15.54-16.68,0-10.85,7.1-17.22,16.08-17.22s15.61,6.77,15.61,16.68ZM542.43,328.99c0,7.1,4.09,12.46,9.85,12.46s9.85-5.29,9.85-12.6c0-5.49-2.75-12.46-9.72-12.46s-9.98,6.43-9.98,12.6Z" class="cls-2"/>
    <path d="M581.43,327.59h.13c.8-1.14,1.94-2.55,2.88-3.68l9.51-11.19h7.1l-12.53,13.33,14.27,19.1h-7.17l-11.19-15.54-3.01,3.35v12.19h-5.83v-47.57h5.83v30.02Z" class="cls-2"/>
    <path d="M626.18,345.14l-.47-4.09h-.2c-1.81,2.55-5.29,4.82-9.92,4.82-6.57,0-9.92-4.62-9.92-9.31,0-7.84,6.97-12.13,19.5-12.06v-.67c0-2.68-.74-7.5-7.37-7.5-3.02,0-6.16.94-8.44,2.41l-1.34-3.89c2.68-1.74,6.57-2.88,10.65-2.88,9.92,0,12.33,6.77,12.33,13.27v12.13c0,2.81.13,5.56.54,7.77h-5.36ZM625.31,328.59c-6.43-.13-13.74,1.01-13.74,7.3,0,3.82,2.55,5.63,5.56,5.63,4.22,0,6.9-2.68,7.84-5.43.2-.6.33-1.27.33-1.88v-5.63Z" class="cls-2"/>
    <path d="M640.52,297.57h5.9v47.57h-5.9v-47.57Z" class="cls-2"/>
    <path d="M674.29,345.14l-.47-4.09h-.2c-1.81,2.55-5.29,4.82-9.92,4.82-6.57,0-9.92-4.62-9.92-9.31,0-7.84,6.97-12.13,19.5-12.06v-.67c0-2.68-.74-7.5-7.37-7.5-3.02,0-6.16.94-8.44,2.41l-1.34-3.89c2.68-1.74,6.57-2.88,10.65-2.88,9.92,0,12.33,6.77,12.33,13.27v12.13c0,2.81.13,5.56.54,7.77h-5.36ZM673.41,328.59c-6.43-.13-13.74,1.01-13.74,7.3,0,3.82,2.55,5.63,5.56,5.63,4.22,0,6.9-2.68,7.84-5.43.2-.6.33-1.27.33-1.88v-5.63Z" class="cls-2"/>
    <path d="M690.36,312.71l6.37,18.22c1.07,2.95,1.94,5.63,2.61,8.31h.2c.74-2.68,1.67-5.36,2.75-8.31l6.3-18.22h6.16l-12.73,32.43h-5.63l-12.33-32.43h6.3Z" class="cls-2"/>
    <path d="M726.88,303.6c.07,2.01-1.41,3.62-3.75,3.62-2.08,0-3.55-1.61-3.55-3.62s1.54-3.68,3.68-3.68,3.62,1.61,3.62,3.68ZM720.31,345.14v-32.43h5.9v32.43h-5.9Z" class="cls-2"/>
    <path d="M735.19,339.11c1.74,1.14,4.82,2.34,7.77,2.34,4.29,0,6.3-2.14,6.3-4.82,0-2.81-1.67-4.36-6.03-5.96-5.83-2.08-8.58-5.29-8.58-9.18,0-5.23,4.22-9.51,11.19-9.51,3.28,0,6.16.94,7.97,2.01l-1.47,4.29c-1.27-.8-3.62-1.88-6.63-1.88-3.48,0-5.43,2.01-5.43,4.42,0,2.68,1.94,3.89,6.17,5.49,5.63,2.14,8.51,4.96,8.51,9.78,0,5.7-4.42,9.71-12.13,9.71-3.55,0-6.83-.87-9.11-2.21l1.47-4.49Z" class="cls-2"/>
    <path d="M777.33,345.14v-27.94h-4.56v-4.49h4.56v-1.54c0-4.56,1-8.71,3.75-11.32,2.21-2.14,5.16-3.01,7.91-3.01,2.08,0,3.89.47,5.03.94l-.8,4.56c-.87-.4-2.08-.74-3.75-.74-5.02,0-6.3,4.42-6.3,9.38v1.74h7.84v4.49h-7.84v27.94h-5.83Z" class="cls-2"/>
    <path d="M824.76,328.66c0,11.99-8.31,17.22-16.15,17.22-8.78,0-15.54-6.43-15.54-16.68,0-10.85,7.1-17.22,16.08-17.22s15.61,6.77,15.61,16.68ZM799.04,328.99c0,7.1,4.09,12.46,9.85,12.46s9.85-5.29,9.85-12.6c0-5.49-2.75-12.46-9.72-12.46s-9.98,6.43-9.98,12.6Z" class="cls-2"/>
    <path d="M832.2,322.83c0-3.82-.07-7.1-.27-10.12h5.16l.2,6.37h.27c1.47-4.36,5.03-7.1,8.98-7.1.67,0,1.14.07,1.67.2v5.56c-.6-.13-1.21-.2-2.01-.2-4.15,0-7.1,3.15-7.91,7.57-.13.8-.27,1.74-.27,2.75v17.29h-5.83v-22.31Z" class="cls-2"/>
    <path d="M906.57,325.31c-.33-6.3-.74-13.87-.67-19.5h-.2c-1.54,5.29-3.42,10.92-5.7,17.15l-7.97,21.91h-4.42l-7.3-21.51c-2.14-6.37-3.95-12.19-5.23-17.55h-.13c-.13,5.63-.47,13.2-.87,19.97l-1.21,19.36h-5.56l3.15-45.16h7.44l7.71,21.84c1.88,5.56,3.42,10.52,4.56,15.21h.2c1.14-4.56,2.75-9.51,4.76-15.21l8.04-21.84h7.44l2.81,45.16h-5.7l-1.14-19.83Z" class="cls-2"/>
    <path d="M929.55,303.6c.07,2.01-1.41,3.62-3.75,3.62-2.08,0-3.55-1.61-3.55-3.62s1.54-3.68,3.68-3.68,3.62,1.61,3.62,3.68ZM922.98,345.14v-32.43h5.9v32.43h-5.9Z" class="cls-2"/>
    <path d="M966.67,297.57v39.2c0,2.88.07,6.16.27,8.38h-5.29l-.27-5.63h-.13c-1.81,3.62-5.76,6.37-11.06,6.37-7.84,0-13.87-6.63-13.87-16.48-.07-10.79,6.63-17.42,14.54-17.42,4.96,0,8.31,2.35,9.78,4.96h.13v-19.36h5.9ZM960.77,325.91c0-.74-.07-1.74-.27-2.48-.87-3.75-4.09-6.83-8.51-6.83-6.1,0-9.72,5.36-9.72,12.53,0,6.57,3.22,11.99,9.58,11.99,3.95,0,7.57-2.61,8.64-7.04.2-.8.27-1.61.27-2.55v-5.63Z" class="cls-2"/>
    <path d="M983.55,303.4v9.31h8.44v4.49h-8.44v17.49c0,4.02,1.14,6.3,4.42,6.3,1.54,0,2.68-.2,3.42-.4l.27,4.42c-1.14.47-2.95.8-5.23.8-2.75,0-4.96-.87-6.37-2.48-1.67-1.74-2.28-4.62-2.28-8.44v-17.69h-5.03v-4.49h5.03v-7.77l5.76-1.54Z" class="cls-2"/>
    <path d="M1011.96,324.84v4.36h-16.55v-4.36h16.55Z" class="cls-2"/>
    <path d="M1024.29,304.94h-13.74v-4.96h33.43v4.96h-13.8v40.2h-5.9v-40.2Z" class="cls-2"/>
    <path d="M1047.33,330c.13,7.97,5.23,11.26,11.12,11.26,4.22,0,6.77-.74,8.98-1.68l1,4.22c-2.08.94-5.63,2.01-10.79,2.01-9.98,0-15.95-6.57-15.95-16.35s5.76-17.49,15.21-17.49c10.59,0,13.4,9.31,13.4,15.28,0,1.21-.13,2.14-.2,2.75h-22.78ZM1064.62,325.78c.07-3.75-1.54-9.58-8.17-9.58-5.96,0-8.58,5.49-9.04,9.58h17.22Z" class="cls-2"/>
    <path d="M1077.62,297.57h5.9v47.57h-5.9v-47.57Z" class="cls-2"/>
    <path d="M1096.71,330c.13,7.97,5.23,11.26,11.12,11.26,4.22,0,6.77-.74,8.98-1.68l1,4.22c-2.08.94-5.63,2.01-10.79,2.01-9.98,0-15.95-6.57-15.95-16.35s5.76-17.49,15.21-17.49c10.59,0,13.4,9.31,13.4,15.28,0,1.21-.13,2.14-.2,2.75h-22.78ZM1114,325.78c.07-3.75-1.54-9.58-8.17-9.58-5.96,0-8.58,5.49-9.04,9.58h17.22Z" class="cls-2"/>
    <path d="M1127,321.49c0-3.35-.07-6.1-.27-8.78h5.16l.27,5.23h.2c1.81-3.08,4.82-5.96,10.18-5.96,4.42,0,7.77,2.68,9.18,6.5h.13c1-1.81,2.28-3.22,3.62-4.22,1.94-1.47,4.09-2.28,7.17-2.28,4.29,0,10.65,2.81,10.65,14.07v19.1h-5.76v-18.36c0-6.23-2.28-9.98-7.04-9.98-3.35,0-5.96,2.48-6.97,5.36-.27.8-.47,1.88-.47,2.95v20.03h-5.76v-19.43c0-5.16-2.28-8.91-6.77-8.91-3.69,0-6.37,2.95-7.3,5.9-.33.87-.47,1.88-.47,2.88v19.56h-5.76v-23.65Z" class="cls-2"/>
    <path d="M1200.83,345.14l-.47-4.09h-.2c-1.81,2.55-5.29,4.82-9.92,4.82-6.57,0-9.92-4.62-9.92-9.31,0-7.84,6.97-12.13,19.5-12.06v-.67c0-2.68-.74-7.5-7.37-7.5-3.02,0-6.16.94-8.44,2.41l-1.34-3.89c2.68-1.74,6.57-2.88,10.65-2.88,9.92,0,12.33,6.77,12.33,13.27v12.13c0,2.81.13,5.56.54,7.77h-5.36ZM1199.96,328.59c-6.43-.13-13.74,1.01-13.74,7.3,0,3.82,2.55,5.63,5.56,5.63,4.22,0,6.9-2.68,7.84-5.43.2-.6.33-1.27.33-1.88v-5.63Z" class="cls-2"/>
    <path d="M1215.17,322.83c0-3.82-.07-7.1-.27-10.12h5.16l.2,6.37h.27c1.47-4.36,5.03-7.1,8.98-7.1.67,0,1.14.07,1.67.2v5.56c-.6-.13-1.21-.2-2.01-.2-4.15,0-7.1,3.15-7.91,7.57-.13.8-.27,1.74-.27,2.75v17.29h-5.83v-22.31Z" class="cls-2"/>
    <path d="M1243.17,327.59h.13c.8-1.14,1.94-2.55,2.88-3.68l9.51-11.19h7.1l-12.53,13.33,14.27,19.1h-7.17l-11.19-15.54-3.02,3.35v12.19h-5.83v-47.57h5.83v30.02Z" class="cls-2"/>
  </g>
</svg>